<svg xmlns="http://www.w3.org/2000/svg" xmlns:xlink="http://www.w3.org/1999/xlink" width="500" zoomAndPan="magnify" viewBox="0 0 375 374.999991" height="500" preserveAspectRatio="xMidYMid meet" version="1.0"><defs><clipPath id="a3edac56ef"><path d="M 37.5 107 L 241 107 L 241 221 L 37.5 221 Z M 37.5 107 " clip-rule="nonzero"/></clipPath><clipPath id="f7059ae94a"><path d="M 137 154 L 337.5 154 L 337.5 269 L 137 269 Z M 137 154 " clip-rule="nonzero"/></clipPath></defs><g clip-path="url(#a3edac56ef)"><path fill="#5409da" d="M 208.066406 192.234375 L 240.167969 160.132812 L 200.007812 119.976562 C 182.839844 102.804688 155.003906 102.804688 137.832031 119.976562 L 37.5 220.308594 L 102.015625 220.773438 L 169.3125 153.472656 Z M 208.066406 192.234375 " fill-opacity="1" fill-rule="nonzero"/></g><g clip-path="url(#f7059ae94a)"><path fill="#5409da" d="M 274.535156 154.578125 L 208.066406 221.046875 L 169.699219 182.679688 L 137.597656 214.777344 L 179.371094 256.554688 C 195.007812 272.1875 220.359375 272.1875 235.992188 256.554688 L 337.511719 155.039062 Z M 274.535156 154.578125 " fill-opacity="1" fill-rule="nonzero"/></g><path stroke-linecap="butt" transform="matrix(0.75, 0.000000000000016111, -0.000000000000016111, 0.75, 100.549599, 187.124988)" fill="none" stroke-linejoin="miter" d="M 0.00157674 0.500016 L 1.324493 0.500016 " stroke="#5409da" stroke-width="1" stroke-opacity="1" stroke-miterlimit="4"/></svg>